<svg viewBox="0 0 64 64" xmlns="http://www.w3.org/2000/svg"><path d="M47.76 61a4.58 4.58 0 0 1-2.7-.9L32 50.63l-13.06 9.49a4.6 4.6 0 0 1-7.07-5.14l5-15.38-12.12-9.57a4.6 4.6 0 0 1 2.85-8.2h15.04l4.99-15.64a4.6 4.6 0 0 1 8.74 0l4.99 15.64H56.4a4.6 4.6 0 0 1 2.85 8.2L47.13 39.6l5 15.38a4.53 4.53 0 0 1-1.67 5.14 4.59 4.59 0 0 1-2.7.9z" fill="#ffe145" data-name="Fill 1"/><g data-name="Effect Line"><circle cx="28" cy="16" fill="#fcf4bb" r="1"/><path d="M24.83 25.82H19a1 1 0 0 1 0-2h5.1l1.32-4.12a1 1 0 0 1 1.9.6l-1.53 4.83a1 1 0 0 1-.96.7z" fill="#fcf4bb"/><g fill="#bfa934"><path d="M49 56.06a1 1 0 0 1-.95-.7l-3.27-10.05a1 1 0 0 1 1.9-.62l3.27 10.06a1 1 0 0 1-.95 1.3zM21 55.9a1 1 0 0 1-.59-1.8l9.5-6.9a1 1 0 0 1 1.18 1.6l-9.5 6.91a1 1 0 0 1-.59.2z"/></g></g></svg>